<svg width="640" height="180" viewBox="0 0 640 180" fill="none" xmlns="http://www.w3.org/2000/svg">
  <rect width="640" height="180" rx="18" fill="white"/>
  <circle cx="72" cy="90" r="58" fill="#F4F4F5" stroke="#7C7C7C" stroke-width="6"/>
  <circle cx="72" cy="90" r="45" fill="url(#shieldGradient)" stroke="#1F2937" stroke-width="3"/>
  <path d="M44 58H100V99C100 119 84 136 72 142C60 136 44 119 44 99V58Z" fill="white" fill-opacity="0.85"/>
  <path d="M44 58H100V82H44V58Z" fill="#2563EB" fill-opacity="0.88"/>
  <path d="M44 82H100V99C100 119 84 136 72 142C60 136 44 119 44 99V82Z" fill="url(#silverGradient)"/>
  <text x="72" y="86" text-anchor="middle" fill="#0F172A" font-family="Georgia, serif" font-size="40" font-weight="700">SJ</text>
  <text x="72" y="106" text-anchor="middle" fill="#111827" font-family="Arial, sans-serif" font-size="11" font-weight="700">SEGURIDAD</text>
  <text x="72" y="118" text-anchor="middle" fill="#374151" font-family="Arial, sans-serif" font-size="7" font-weight="700">PRIVADA LTDA</text>
  <line x1="147" y1="34" x2="147" y2="146" stroke="#0F172A" stroke-width="2"/>
  <text x="178" y="106" fill="#1D4ED8" font-family="Georgia, serif" font-size="84" font-weight="700">SJ</text>
  <text x="287" y="82" fill="#111827" font-family="Arial, sans-serif" font-size="52" font-weight="800" letter-spacing="1">SEGURIDAD</text>
  <text x="289" y="113" fill="#6B7280" font-family="Arial, sans-serif" font-size="20" font-weight="700" letter-spacing="10">PRIVADA LTDA</text>
  <defs>
    <linearGradient id="shieldGradient" x1="42" y1="47" x2="102" y2="141" gradientUnits="userSpaceOnUse">
      <stop stop-color="#1D4ED8"/>
      <stop offset="1" stop-color="#0F172A"/>
    </linearGradient>
    <linearGradient id="silverGradient" x1="44" y1="82" x2="100" y2="142" gradientUnits="userSpaceOnUse">
      <stop stop-color="#F8FAFC"/>
      <stop offset="1" stop-color="#9CA3AF"/>
    </linearGradient>
  </defs>
</svg>